{"title":"Game Of Thrones S02E02 720p WEBRip XviD-REFiLL [PublicHD]","uid":7154949,"size":1504848034,"categoryP":"video","categoryS":"hd___tv_shows","magnet":"?xt=urn:btih:5f05f7cae3f94040b26b5570c65bd8b45032afcf&amp;dn=Game+Of+Thrones+S02E02+720p+WEBRip+XviD-REFiLL+%5BPublicHD%5D&amp;tr=udp%3A%2F%2Ftracker.openbittorrent.com%3A80&amp;tr=udp%3A%2F%2Fopen.demonii.com%3A1337&amp;tr=udp%3A%2F%2Ftracker.coppersurfer.tk%3A6969&amp;tr=udp%3A%2F%2Fexodus.desync.com%3A6969","seeders":6,"leechers":4,"uploader":"DibyaTPB","files":-1,"time":1333431671,"description":"[IMG]http://i.imgur.com/qs8bn.jpg[/IMG]\n\n\nLove or Hate Us You Can't Beat Us @ PublicHD . ORG\n\nYou Won't Find Every Thing But You Will Get Something\n\n-------------------------------------------------------------\n\nGame Of Thrones S02E02 720p WEBRip XviD-REFiLL [PublicHD]\n\nGeneral\nComplete name : /home/nadder/downloads/Game.Of.Thrones.S02E02.720p.WEBRip.XviD-REFiLL/Sample/refill.throness02e02.720p.sample.avi\nFormat : AVI\nFormat/Info : Audio Video Interleave\nFile size : 31.0 MiB\nDuration : 56s 932ms\nOverall bit rate : 4 567 Kbps\nWriting application : VirtualDubMod 1.5.10.2 (build 2540/release)\nWriting library : VirtualDubMod build 2540/release\n\n\n\nVideo\nID : 0\nFormat : MPEG-4 Visual\nFormat profile : Advanced Simple@L5\nFormat settings, BVOP : 1\nFormat settings, QPel : No\nFormat settings, GMC : No warppoints\nFormat settings, Matrix : Default (MPEG)\nCodec ID : XVID\nCodec ID/Hint : XviD\nDuration : 56s 932ms\nBit rate : 4 364 Kbps\nWidth : 1 280 pixels\nHeight : 720 pixels\nDisplay aspect ratio : 16:9\nFrame rate : 23.976 fps\nColor space : YUV\nChroma subsampling : 4:2:0\nBit depth : 8 bits\nScan type : Progressive\nCompression mode : Lossy\nBits/(Pixel*Frame) : 0.197\nStream size : 29.6 MiB (96%)\nWriting library : XviD 1.2.1 (UTC 2008-12-04)\n\n\n\nAudio\nID : 1\nFormat : AC-3\nFormat/Info : Audio Coding 3\nMode extension : CM (complete main)\nCodec ID : 2000\nDuration : 56s 932ms\nBit rate mode : Constant\nBit rate : 192 Kbps\nChannel(s) : 2 channels\nChannel positions : Front: L R\nSampling rate : 48.0 KHz\nBit depth : 16 bits\nCompression mode : Lossy\nDelay relative to video : 10ms\nStream size : 1.30 MiB (4%)\nAlignment : Split accross interleaves\nInterleave, duration : 42 ms (1.01 video frame)\nInterleave, preload duration : 500 ms","torrent":{"xt":"urn:btih:5f05f7cae3f94040b26b5570c65bd8b45032afcf","amp;dn":"Game+Of+Thrones+S02E02+720p+WEBRip+XviD-REFiLL+%5BPublicHD%5D","amp;tr":["udp%3A%2F%2Ftracker.openbittorrent.com%3A80","udp%3A%2F%2Fopen.demonii.com%3A1337","udp%3A%2F%2Ftracker.coppersurfer.tk%3A6969","udp%3A%2F%2Fexodus.desync.com%3A6969"],"infoHash":"5f05f7cae3f94040b26b5570c65bd8b45032afcf","infoHashBuffer":{"type":"Buffer","data":[95,5,247,202,227,249,64,64,178,107,85,112,198,91,216,180,80,50,175,207]},"announce":[],"urlList":[]}}